<?xml version="1.0" encoding="UTF-8"?><svg id="a" xmlns="http://www.w3.org/2000/svg" viewBox="0 0 582 215.3"><defs><style>.b{fill:#fff;}.c{fill:#fff7eb;}.d{fill:#e25936;}.e{fill:#3b3b3c;}</style></defs><path class="b" d="M582,.5c-.67,0-1.33,.02-2,.02-192.67,0-385.33,0-578,0-.67,0-1.33-.01-2-.02C.08,.34,.16,.03,.25,.03,.92-.01,1.58,0,2.25,0,194.75,0,387.25,0,579.75,.03c.75,0,1.5,.31,2.25,.48Z"/><g><rect class="d" x="114.9" y="11.95" width="352.21" height="203.35"/><g><path class="e" d="M411.73,166.2c.21-2.32,.37-4.65,.64-6.97,.58-4.9,.48-9.74-1.14-14.47q-.38-1.12-1.88-2.4c0,2.75,.17,5.21-.03,7.65-1.52,18.74-10.85,32.37-27.23,41.31-.57,.31-1.4,.93-1.93,.24-.47-.6,.2-1.29,.56-1.9,4.91-8.4,7.82-17.39,7.82-27.19,0-2.32-.39-4.63-1.01-7.42-.91,3.24-1.61,5.99-2.46,8.68-2.44,7.69-6.2,14.59-12.68,19.64-4.65,3.62-9.99,5.44-15.93,5.33-.44,0-.92,.07-1.39-.52,.91-.73,1.86-1.43,2.75-2.19,3.5-3.01,5.65-6.84,6.98-11.23,2.3-7.65,1.87-15.26,.23-22.96-.98-4.59-2.24-9.08-3.65-13.54-.4-1.27-.04-1.67,1.19-1.66,3.67,0,7.26-.42,10.62-2.06,1.87-.91,3.64-1.98,5.21-3.34,.4-.1,.67-.34,.77-.76,.28-.28,.55-.56,.83-.84,3.37-2.34,6.68-12.81,5.53-15.95-.89,1.56-1.68,3.13-2.16,4.84-2.83,5.49-7.24,9.28-12.87,11.56-4.14,1.68-8.5,2.82-12.77,.43-3.06-1.71-4.75-4.74-6.37-7.71-2.4-4.39-4.89-8.7-8.12-12.55-.34-.41-.76-.82-.59-1.36,.2-.65,.86-.44,1.35-.5,7.49-.9,12.99-4.65,16.02-11.62,.93-2.14,2.6-2.55,4.46-2.79,8.59-1.11,17.17-1.09,25.62,.98,7.59,1.86,14.49,5.24,20.4,10.45,.15,.13,.36,.22,.44,.38,.26,.49,1.21,.74,.86,1.36-.39,.69-1.2,.25-1.75,.04-4.45-1.72-9.14-2.47-13.78-3.4-.81-.16-1.61-.13-2.36,.16,8.83,4.01,16.56,9.4,21.43,18.12,4.39,7.86,5.45,16.23,3.9,25.11-1.15,6.6-3.46,12.75-6.19,18.79-.15,.34-.23,.78-.78,.64l-.51-.38Zm-41.02-56.45c-.05-.58,0-1.27-.67-1.5-.92-.32-1.8-.07-2.57,.51-1.44,1.08-2.86,3.01-4.31,3.03-1.59,.02-3.22-1.71-4.8-2.71-.66-.42-1.37-1.12-2.04-.35-.51,.59-.34,1.51,.06,2.22,.71,1.26,1.66,2.33,2.78,3.24,.77,.63,.82,1.23,.05,1.93-1.24,1.14-2.45,2.32-3.66,3.5-.26,.25-.73,.49-.53,.92,.18,.37,.65,.36,1.05,.39,2.1,.15,3.94-.67,5.7-1.66,1.22-.69,2.24-.82,3.23,.43,.72,.91,1.64,1.66,2.39,2.55,.65,.76,.92,.54,1.39-.21,1.18-1.87,.21-3.44-.7-4.88-.77-1.23-.73-2.02,.28-3.05,1.17-1.2,2.29-2.52,2.36-4.36Z"/><path class="e" d="M362.46,82.83c-1.52,2.7-2.71,5.48-4.37,8.02-2.95,4.5-6.59,8.24-11.67,10.24-3.83,1.51-7.75,1.64-11.87,.87-12.16-2.28-18.3-17.44-15.56-27.77,1.54-5.8,3.55-11.27,7.99-15.51,1.81-1.73,3.94-2.99,6.41-3.5,2.17-.44,2.67,.16,2.5,2.36-.27,3.51-1.14,6.95-1.01,10.5,.06,1.73,.5,3.36,.95,4.97,.61,2.16,3.01,2.98,5.29,2.11,4.61-1.77,6.59-5.42,7.18-10.03,.36-2.78,.72-5.55,1.94-8.12,.54-1.13,1.3-2.11,2.29-2.87,.48-.37,.99-.86,1.75-.39,.65,.4,.85,.92,.82,1.63-.07,1.63-.13,3.26-.15,4.89-.03,2.27,.49,4.53,2.74,5.38,2.49,.93,4.99,.38,7.06-1.52,3.37-3.1,4.05-7.27,4.65-11.49,.15-1.06-.42-2.58,.66-3.06,1.31-.59,2.41,.66,3.36,1.5,3.43,3.04,5.97,6.83,8.6,10.53,1.85,2.6,3.67,3.04,6.53,1.6,2.79-1.41,5.03-3.51,6.92-5.91,3.72-4.74,8.17-4.73,12.53-1.74,8.06,5.51,13.08,13.09,14.92,22.83,1.12,5.96,.93,11.79-.3,17.65-.24,1.14-.61,2.26-.96,3.37-.55,1.75-1.18,1.96-2.56,.76-5.77-5.01-12.35-8.61-19.59-10.87-8.02-2.5-16.25-3.51-24.67-2.6-3.69,.4-7.37,.81-10.94,1.86-1.26,.37-1.13-.5-1.14-1.17-.02-1.5,.34-3.02-.28-4.51Z"/><path class="e" d="M359.37,159.06c-.18,4.46-.59,8.58-3.11,12.18-3.28,4.7-8.76,6.14-12.84,3.4-4.17-2.8-5.57-9.73-2.14-14.03,2.11-2.64,4.31-5.21,6.31-7.92,2.59-3.51,4.03-7.52,4.65-11.83,.13-.9,.28-1.8,.44-2.7,.06-.32,.14-.67,.53-.74,.5-.08,.64,.32,.8,.68,1.46,3.47,2.74,7.01,3.8,10.63,1.01,3.46,1.37,7.02,1.56,10.33Z"/><path class="e" d="M324.98,122.5c-.27-7.1,3.71-11.48,9.57-13.85,.89-.36,1.37,.08,1.87,.57,4.01,3.98,6.66,8.91,9.48,13.71,.64,1.1-.19,1.3-1.04,1.46-1.84,.34-3.69,.49-5.52,1.13-5.81,2.03-8.12,6.02-8.11,12.07,0,.44,.53,1.1-.24,1.33-.65,.2-.85-.43-1.14-.85-2.93-4.2-4.87-10.39-4.87-15.57Z"/><path class="e" d="M345.59,145.07c-.63,3.17-2.54,5.6-4.43,8.04-1.9,2.45-4.28,4.52-5.68,7.36-.37,.76-.98,1-1.92,.46-2.17-1.25-3.08-3.11-2.93-5.5,.16-2.48,1.12-4.53,3.58-5.54,2.68-1.1,5.68-1.26,8.22-2.85,1.05-.66,1.84-1.74,3.17-1.96Z"/><path class="e" d="M335.67,133.92c.52-2.15,2.06-3.19,3.51-4.13,2.42-1.58,5.26-2.18,8.04-2.8,1.68-.37,1.95,1.43,2.8,2.3,.43,.44,1.06,1.06,.79,1.67-.29,.66-1.17,.38-1.79,.4-4.51,.13-8.8,1.46-13.36,2.57Z"/><path class="e" d="M383.36,118.47c.48-1.71,1.26-3.28,2.16-4.84,1.16,3.14-2.16,13.61-5.53,15.95,2.11-2.77,3.68-5.81,4.69-9.14,.15-.49,.28-1,.28-1.51,0-.65,.49-1.65-.33-1.88-.78-.22-.55,.99-1.01,1.39-.05,.04-.09,.09-.13,.14l-.13-.13Z"/><path class="e" d="M379.16,130.43c-.09,.42-.37,.66-.77,.76-.04-.56,.37-.65,.77-.76Z"/><path class="e" d="M412.24,166.58c.03,.59-.09,1.12-.65,1.61-.45-.79-.46-1.41,.14-1.99,.17,.13,.34,.26,.51,.38Z"/><path class="c" d="M370.71,109.74c-.07,1.84-1.19,3.16-2.36,4.36-1.01,1.03-1.05,1.82-.28,3.05,.91,1.45,1.89,3.02,.7,4.88-.47,.74-.75,.97-1.39,.21-.75-.89-1.68-1.64-2.39-2.55-.98-1.25-2.01-1.11-3.23-.43-1.76,.99-3.6,1.81-5.7,1.66-.39-.03-.87-.01-1.05-.39-.21-.44,.27-.67,.53-.92,1.21-1.18,2.42-2.36,3.66-3.5,.76-.7,.72-1.29-.05-1.93-1.12-.91-2.07-1.98-2.78-3.24-.4-.72-.57-1.63-.06-2.22,.67-.77,1.38-.07,2.04,.35,1.59,1,3.21,2.73,4.8,2.71,1.45-.01,2.87-1.94,4.31-3.03,.77-.58,1.65-.83,2.57-.51,.67,.23,.62,.92,.67,1.5Z"/></g><path class="e" d="M296.11,121.38c-.21,.77,.36,1.19,.77,1.68,3.84,4.63,6.91,9.62,7.19,15.85,.18,4.07-1.06,7.66-3.93,10.64-.89,.92-1.58,.69-2.2-.25-3.99-6.02-9.39-10.76-14.36-15.91-1.26-1.31-2.48-1.4-3.95-.42-4.46,2.96-9.26,5.26-14.31,6.98-4.69,1.59-9.47,2.86-14.52,2.36-.13-.01-.27,.02-.39-.02-1.43-.5-3.51-.25-4.03-1.85-.46-1.43,1.48-1.91,2.41-2.71,5.39-4.62,10.45-9.59,15.58-14.48,.54-.51,1.34-.89,1.29-1.84,.49-.17,1.03-.26,1.46-.52,1.62-1,1.65-1.68,.18-2.91-4.75-3.97-9.49-7.97-12.67-13.39-2.13-3.64-3.09-7.4-.73-11.43,.69-1.19,1.23-1.2,2.28-.62,7.86,4.3,15.43,9.06,22.65,14.35,1.33,.97,2.08,.73,3.14-.25,4.63-4.28,9.3-8.52,14.59-12.01,1.95-1.29,4-2.42,6.21-3.19,3.88-1.35,7.51,1.72,7.29,6.33-.15,3.24-1.49,6.16-3.13,8.92-2.81,4.73-6.34,8.86-10.23,12.72-.48,.48-1.72,.93-.58,1.97Z"/><path class="c" d="M162.38,103.97c-3.02-.43-5.54,.37-8.06,.92-2.65,.57-5.33,1.17-7.85,2.23-.43,.18-.99,.31-1.26-.12-.32-.52,.07-1,.48-1.35,3.87-3.33,8.14-6.01,12.84-8.03,10.63-4.56,21.75-4.67,33-3.66,2.32,.21,3.98,1.02,5.08,3.43,2.97,6.47,8.3,9.97,15.28,11.01,1.64,.24,2.01,.85,.94,2.14-3.95,4.73-6.49,10.33-9.77,15.46-3.39,5.29-7.89,6.76-13.98,5.06-7.32-2.04-12.68-6.36-16.28-12.98-.31-.57-.44-1.23-.75-1.8-.29-.55-.7-1.05-1.33-1.96,.54,7.71,2.89,13.97,9.09,18.33,3.91,2.75,8.26,3.98,13.02,3.99,2.19,0,2.45,.34,1.81,2.4-1.91,6.22-3.61,12.51-4.4,18.97-1.16,9.47,.09,18.45,6.33,26.16,.78,.96,1.63,1.87,2.67,2.56,.55,.36,1.33,.74,1.14,1.42-.25,.87-1.22,.59-1.88,.55-6.11-.36-11.5-2.52-16.05-6.66-6.65-6.06-10.16-13.85-12.26-22.41-.32-1.29-.71-2.56-1.22-4.41-.85,3.49-1.39,6.42-1.2,9.42,.54,8.58,3.04,16.58,7.25,24.07,.45,.8,1.6,1.75,.89,2.58-.91,1.06-1.89-.21-2.72-.66-11-6.08-18.95-14.83-23.21-26.77-2.03-5.69-3.22-11.53-3.01-17.6,.04-1.1,0-2.2,0-3.75-1.95,1.26-2.18,3.01-2.56,4.5-1.09,4.27-1.11,8.63-.46,12.99,.26,1.74,.42,3.49,.6,5.24,.04,.38,.06,.86-.37,1.01-.46,.16-.66-.23-.84-.6-3.87-7.97-6.64-16.26-6.77-25.21-.2-12.57,5.08-22.47,14.94-30.06,3.25-2.5,6.85-4.42,10.85-6.41Zm37.04,16.92c.52-.14,1.28,.21,1.52-.51,.18-.55-.43-.88-.8-1.24-.84-.81-1.67-1.65-2.55-2.41-1.2-1.02-1.35-1.95-.02-3.01,.96-.77,1.78-1.72,2.32-2.86,.26-.55,.49-1.11,.04-1.64-.49-.57-1.04-.28-1.6-.05-1.29,.51-2.35,1.37-3.46,2.16-1.17,.83-2.14,.85-3.25-.22-1.02-.98-2.2-1.85-3.45-2.51-1.54-.82-2.37-.16-2.23,1.58,.12,1.61,1.19,2.73,2.18,3.82,.98,1.08,1.52,2.01,.29,3.3-.73,.77-.81,1.9-.94,2.92-.1,.79,.04,1.79,.72,2.1,.71,.33,1.15-.61,1.62-1.12,.4-.43,.87-.8,1.21-1.27,1.15-1.58,2.46-1.56,4.01-.6,1.33,.83,2.83,1.28,4.41,1.58Z"/><path class="c" d="M194.13,82.53c-.71,1.21-.48,2.27-.48,3.28,0,2.56-.1,2.72-2.68,2.27-2.56-.44-5.12-.88-7.69-1.27-6.87-1.05-13.6-.37-20.36,.94-8.26,1.6-15.66,5.03-22.48,9.86-1.01,.71-1.93,1.54-2.9,2.3-1.44,1.13-2.16,.9-2.81-.87-1.19-3.28-1.73-6.72-1.89-10.14-.57-11.99,2.95-22.46,12.07-30.68,1.7-1.53,3.55-2.86,5.64-3.79,3.87-1.73,7.46-.73,10.24,2.69,2.02,2.49,4.24,4.76,7.2,6.18,2.75,1.32,4.59,.85,6.41-1.64,2.38-3.25,4.61-6.62,7.47-9.49,.14-.14,.23-.33,.38-.44,1.22-.92,2.4-2.62,3.94-2.05,1.33,.49,.73,2.41,.91,3.72,.56,3.98,1.43,7.79,4.53,10.73,2.96,2.8,7.62,2.59,9.23-.56,.67-1.32,.63-2.78,.65-4.21,.01-.85-.08-1.7-.05-2.54,.04-1.1-.59-2.6,.96-3.02,1.3-.35,2.07,.89,2.79,1.77,2.09,2.56,2.26,5.77,2.73,8.84,.41,2.67,1.09,5.17,2.71,7.42,1.44,2,3.44,2.96,5.65,3.56,2.15,.58,3.79-.59,4.44-2.73,1.07-3.52,.91-7.07,.39-10.64-.21-1.42-.38-2.84-.47-4.27-.16-2.51,.76-3.24,3.14-2.37,2.92,1.06,5.56,2.68,7.38,5.23,5.48,7.66,8.38,15.96,5.96,25.5-1.77,7.01-5.78,12.57-12.46,15.05-7.61,2.83-15,1.47-21.23-4.25-4.26-3.92-6.99-8.82-9.3-14.37Z"/><path class="c" d="M208.29,176.15c-4.15-.02-8.24-3.29-9.88-7.89-2.14-5.98-1.73-11.98-.25-18.03,1.01-4.12,2.4-8.08,4.1-11.95,.22-.49,.42-1.04,1.06-.93,.57,.1,.53,.68,.57,1.12,.61,8.13,4.54,14.63,9.97,20.4,2.6,2.76,3.76,5.91,3.09,9.8-.71,4.12-4.43,7.51-8.67,7.49Z"/><path class="c" d="M231.59,123.27c-.21,5.1-1.84,10.29-5.07,14.96-.3,.43-.55,.97-1.2,.74-.58-.21-.29-.78-.37-1.2-.37-2.04-.02-4.19-.94-6.13-1.91-4-5.38-5.95-9.5-6.66-4.96-.85-4.97-.69-2.35-5.11,1.89-3.18,3.84-6.31,6.26-9.13,2.75-3.21,2.78-2.65,6.01-.89,5.17,2.82,7.2,6.93,7.14,13.43Z"/><path class="c" d="M210.73,144.78c2.48,1.41,4.63,3.09,7.33,3.74,1.5,.36,3.02,.67,4.46,1.34,2.53,1.18,3.28,3.4,3.53,5.85,.22,2.16-1.41,4.61-3.34,5.55-.8,.39-1.44,.28-1.81-.48-1.67-3.37-4.66-5.72-6.76-8.75-1.5-2.17-3.24-4.24-3.42-7.26Z"/><path class="c" d="M209.21,126.71c3.75,1.07,7.66,1.9,10.52,4.97,.57,.61,1.38,1.38,.9,2.17-.48,.8-1.27-.12-1.92-.26-3.99-.85-7.93-2.02-12.05-2.07-1.64-.02-1.68-.88-.82-1.8,1-1.07,1.34-2.95,3.37-3.01Z"/><path class="e" d="M199.42,120.89c-1.58-.3-3.07-.75-4.41-1.58-1.55-.96-2.86-.98-4.01,.6-.34,.47-.81,.84-1.21,1.27-.47,.51-.91,1.45-1.62,1.12-.68-.31-.82-1.31-.72-2.1,.13-1.02,.21-2.15,.94-2.92,1.23-1.29,.69-2.22-.29-3.3-1-1.1-2.06-2.21-2.18-3.82-.13-1.74,.69-2.4,2.23-1.58,1.25,.66,2.43,1.54,3.45,2.51,1.11,1.06,2.08,1.05,3.25,.22,1.11-.79,2.17-1.65,3.46-2.16,.56-.22,1.11-.52,1.6,.05,.45,.53,.22,1.09-.04,1.64-.54,1.15-1.35,2.09-2.32,2.86-1.33,1.07-1.17,1.99,.02,3.01,.89,.76,1.71,1.6,2.55,2.41,.37,.35,.98,.68,.8,1.24-.23,.72-1,.37-1.52,.51Z"/></g></svg>