<?xml version="1.0" encoding="UTF-8"?><svg id="a" xmlns="http://www.w3.org/2000/svg" viewBox="0 0 582 225.54"><defs><style>.b{fill:#fff;}.c{fill:#3b3b3c;}</style></defs><path class="b" d="M582,184.22c-.67,0-1.33,.02-2,.02-192.67,0-385.33,0-578,0-.67,0-1.33-.01-2-.02,.08-.17,.16-.47,.25-.48,.66-.04,1.33-.02,2-.02,192.5,0,385,0,577.5,.02,.75,0,1.5,.31,2.25,.48Z"/><g><path class="c" d="M408.32,38.65c.31-.56,.53-.97,.76-1.38h.55c.11,.82,.5,1.69,.28,2.46-.99,3.31-1.92,6.64-3.32,9.85-2.09,4.77-4.42,9.48-6.89,14.14-3.68,6.95-7.27,13.95-11.45,20.73-4.07,6.61-8.68,13.05-13.36,19.43-2.9,3.95-6.45,7.63-10.94,10.68-2.44,1.66-5.02,3.2-8.54,3.29-2.95,.07-5.2-.96-6.11-3.09-.7-1.63-1.29-3.34-1.41-5.03-.41-5.65,.44-11.1,5.47-15.69,.51-.46,.88-1,1.3-1.52,.04-.05-.07-.16-.22-.45-.58,.41-1.1,.75-1.59,1.12-5.81,4.37-11.52,8.82-17.45,13.1-4.69,3.39-9.77,6.45-15.83,8.35-1.85,.58-3.89,.83-5.86,1.16-.54,.09-1.14-.06-1.8-.28,5.61-1.75,10.25-4.26,13.12-8.42-16.87,5.74-34.64,8.3-52.89,9.61-14.54,1.04-51.5-.02-54.6-2.3,1.18,0,2,0,2.83,0,9.92,.06,19.72-.85,29.4-2.34,6.62-1.02,13.14-2.46,19.66-3.83,13.61-2.87,26.55-7.09,39.46-11.35,9.19-3.04,18.27-6.24,27.47-9.26,7.69-2.52,15.59-4.6,23.87-5.76,3.68-.52,6.22,.25,7.84,2.31,.76,.97,.75,1.84-.01,2.88-3.76,5.12-7.59,10.22-11.05,15.45-1.99,3.01-3.07,6.31-2.37,9.76,.09,.46,.45,1.21,.8,1.25,.6,.06,1.54-.19,1.88-.55,2.22-2.4,4.59-4.75,6.4-7.32,6.84-9.7,12.48-19.82,17.69-30.07,1.39-2.74,2.83-5.45,4.22-8.19,.23-.45,.29-.96,.54-1.84-8.68,4.56-17.35,7.25-27.07,3.71-2.43,1.92-4.72,4.08-7.47,5.82-6.78,4.29-16.2,3.45-22.62-.59-1.8-1.13-1.86-1.17-3,.42-3.32,4.63-7.62,8.62-13.69,11.28-2.4,1.05-5.15,1.81-7.87,2.26-5.35,.89-10.82-1.71-12.96-5.72-1.98-3.71-2.1-7.57-1.62-11.44,.8-6.39,2.96-12.55,5.9-18.57,.29-.6,.43-1.23,.74-2.12-.82,.11-1.34,.13-1.82,.25-1.63,.41-3.23,.89-4.87,1.28-1.22,.29-1.92,.69-2.05,1.82-.96,8.18-3.64,16.05-7.8,23.63-3.54,6.45-7.85,12.54-13.96,17.82-3.44,2.97-7.25,5.63-12.4,6.81-4.25,.97-9.3,.48-11.08-2.7-.63-1.13-1.1-2.46-.95-3.66,.38-3.05,.9-6.12,1.83-9.1,2.08-6.66,4.57-13.24,6.62-19.91,.58-1.87,.37-3.9,.27-5.86-.08-1.53-1.26-2.68-3.03-3.46-.56-.25-1.07-.55-1.6-.83,3.67-4.34,11.09-4.39,19.81-.21-.03-.45-.05-.82-.07-1.2,2.57,.28,4.69,2.13,5.12,4.51,.61,3.4,.02,6.73-1.35,9.95-2.12,5-4.48,9.95-6.63,14.95-.58,1.36-.94,2.81-1.08,4.24-.14,1.46,1.09,2,2.92,1.48,2.83-.8,4.52-2.54,6.09-4.33,3.7-4.23,6.29-8.86,8.16-13.7,1.91-4.95,3.45-9.99,5.07-15.01,.35-1.08,.37-2.22,.51-3.33,.1-.78-.28-1.25-1.44-1.24-4.76,.03-7.05-3.46-6.23-6.62,1.3-5.03,5.17-8.59,10.8-11.35l.93,1.14c2.7-2.36,5.97-3.08,10.27-2.4-.68,.55-1.08,.91-1.52,1.24-2.4,1.73-3.4,3.88-2.97,6.33,.36,2.04,2.37,3.01,4.81,2.15,2.87-1.02,5.62-2.28,8.24-3.63,2.31-1.19,7.41-.34,8.22,1.68,.29,.73,0,1.79-.54,2.48-4.01,5.25-6.45,10.78-5.71,16.92,.35,2.86,1.37,5.6,3.65,7.96,1.49,1.55,3.33,2.76,6.12,2.66,3.23-.12,4.48-1.68,3.46-3.93-.55-1.21-.93-2.58-.75-3.83,.69-4.81,1.49-9.63,2.53-14.4,.87-4,2.13-7.94,3.22-11.91,.36-1.32,.54-2.69,1.13-3.96,.27-.58,1.21-1.2,2.02-1.38,4.8-1.1,8.59-3.29,11.94-6.2-.58,.1-1.2,.15-1.75,.32-10.42,3.22-21.25,4.79-32.5,4.41-4.42-.15-7.9-1.69-9.79-4.88-.24-.41-.23-.9-.15-1.42,1.92,1.31,3.63,2.73,6.46,2.64-3.21-2.03-5.22-4.6-6.28-7.56-1.53-4.26-2.03-8.54,.38-12.75,.52-.92,1.23-.95,1.82-.14,2.85,3.93,7.5,6.24,12.7,7.97,5.29,1.76,10.94,2.5,16.66,2.95,1.41,.11,2.05-.19,2.02-1.33-.07-2.7,.07-5.41-.07-8.11-.12-2.37-1.05-4.58-3.1-6.46-.74-.68-1-1.31,.6-1.36,5.89-.18,11.45,.43,15.73,3.96,.25-1.32,.62-1.46,1.9-.7,2.55,1.5,3.7,3.6,4.07,5.92,.29,1.8,.24,3.63,.27,5.45,.02,1.22,.32,1.41,1.86,.99,4.4-1.18,8.76-2.48,13.23-3.49,3.8-.85,7.6-.57,10.94,1.26,.52,.29,.77,.86,1.15,1.3-.58,.17-1.17,.47-1.76,.48-6.09,.11-11.45,2.03-16.83,3.89-2.35,.81-4.58,1.83-6.96,2.57-2.2,.68-3.05,1.89-3.56,3.55-2.04,6.67-4.31,13.29-6.3,19.97-1.68,5.63-3.21,11.3-4.53,16.99-.58,2.51-.68,5.1,.46,7.62,1.09,2.4,3.27,3.49,6.62,3.25,3.94-.28,6.67-2.01,8.99-4.22,1.86-1.77,2.79-3.7,3.07-6.08,.44-3.73,1.76-7.41,2.9-11.08,1.83-5.89,4-11.72,5.66-17.64,.52-1.83,.19-3.91-.38-5.77-.31-1-1.82-1.89-3.02-2.61-1.04-.63-1.27-1.04-.24-1.73,3.37-2.25,7.29-2.97,11.52-2.01,2.55,.58,4.91,1.62,7.31,2.44v-.82c.24-.03,.44-.1,.57-.06,3.2,1.06,4.45,3.12,4.74,5.56,.44,3.7-.76,7.24-2.21,10.71-2.08,4.97-4.52,9.85-6.55,14.83-.83,2.04-.97,4.24,.36,6.29,.89,1.36,2.13,1.73,3.94,1.14,5.25-1.72,8.51-4.65,9.94-8.89,1.55-4.6,3.48-9.12,5.15-13.69,.51-1.39,.78-2.83,1.06-4.26,.17-.86,.7-1.16,1.84-1.18,4.22-.08,6.63,1.26,8,4.69Z"/><path class="c" d="M429.08,76.44l-3.82,.39v.44c1.1,.19,2.24,.3,3.3,.59,4.18,1.15,6.14,3.65,6.57,6.82,.51,3.76-1.14,7.27-2.79,10.74-.16,.34-.44,.65-.66,.98l-.59-.28c-.17-.52-.23-1.08-.52-1.55-.83-1.35-2.23-2.19-4.23-2.41-5.56-.62-9.97,1.12-13.86,3.88-5.66,4.03-9.46,9.03-12.76,14.26-3.91,6.2-6.77,12.69-8.94,19.34-2.98,9.15-4.77,18.41-3.89,27.87,.29,3.17,1.02,6.32,3.68,8.95,1.01,1,2.22,1.84,4.4,1.89-.41-1.5-.8-2.83-1.14-4.17-1.35-5.33-1.71-10.65,.33-15.94,1.05-2.72,2.75-5.21,5.67-7.07,5.93-3.77,12.86-3.04,17.12,1.85,1.28,1.47,2.04,3.19,2.83,4.9-2.07-.17-3.53-1.62-5.93-.83,4.31,1.72,6.72,4.21,6.97,8-1.44-.3-2.49-.54-3.55-.74-3.85-.74-6.27,.31-7.53,3.18-1.1,2.51-2.05,5.08-3.46,7.5-2.67,4.58-7.97,6.06-14.07,5.95-5.62-.1-8.92-2.88-10.91-6.54-1.28-2.35-2.13-4.83-3.21-7.32-1.37,1.91-2.59,3.86-4.12,5.67-2.59,3.07-5.84,5.63-10.38,7.13-6.89,2.27-13.5,1.09-18.21-3.35-.34-.32-.7-.64-1.24-1.12-.51,.57-.98,1.03-1.35,1.53-3.74,5.13-8.62,9.44-15.66,12.07-4.88,1.82-9.9,2.41-14.68-.23-3.23-1.78-4.68-4.41-5.35-7.27-1.34-5.72-.29-11.36,1.61-16.89,1.31-3.82,3.03-7.56,4.55-11.34,.07-.17,0-.36,0-.76-.77,.15-1.45,.25-2.11,.41-1.57,.4-3.2,.72-4.67,1.28-.8,.31-1.73,.97-1.89,1.58-1.1,4.34-1.59,8.79-3.08,13.05-3.99,11.38-10.16,21.97-21.21,30.57-2.9,2.25-6.26,4.07-10.39,4.89-5.73,1.14-11.51-.59-11.52-6.17,0-3.79,1.11-7.4,2.38-11,2.42-6.88,5.46-13.65,6.52-20.78,.34-2.27,.29-4.52-2.14-6.24-.79-.56-1.79-.95-2.7-1.41,3.41-4.24,11.35-4.42,19.51-.43l.61-1.06c3.36,.66,5.37,3.84,5.05,6.64-.35,3.04-1.01,6.12-2.14,9.05-1.92,4.95-4.36,9.79-6.49,14.69-.44,1.01-.63,2.1-.7,3.17-.1,1.48,1.09,2.23,2.78,1.56,1.75-.69,3.5-1.61,4.73-2.75,3.9-3.61,6.35-7.87,8.32-12.23,1.93-4.26,3.62-8.6,5.1-12.97,.93-2.74,1.31-5.59,1.81-8.41,.06-.33-.69-1.05-1.12-1.07-6.49-.35-7.53-4.45-6.28-7.86,1.59-4.34,5.19-7.66,10.4-10.15l.72,1.36c2.66-2.65,6.18-3.3,10.76-2.64-.73,.52-1.18,.85-1.63,1.17-2.51,1.8-3.5,4.02-3.06,6.59,.27,1.55,2.17,2.42,4.27,2.05,3.27-.58,5.96-1.98,8.5-3.54,2.56-1.58,7.36-.77,8.66,1.55,.26,.47,.13,1.2-.17,1.69-1.38,2.33-3.18,4.55-4.27,6.95-2.79,6.12-3.24,12.23,1.26,18.09,.49,.63,1.16,1.22,1.87,1.72,4.11,2.91,7.74,1.37,9.81-1.46,.51-.7,.19-1.83-.03-2.72-1.48-6.02-.53-11.87,1.8-17.67,2.09-5.22,5.44-9.88,10.64-13.69,3.55-2.6,7.71-4.45,12.65-5.19,5.43-.81,9.52,.65,12.45,4.13,.22,.26,.45,.52,.92,1.05,.39-1.09,.78-1.9,.98-2.73,2.06-8.59,5.11-16.98,9.49-25.06,3.78-6.96,8.32-13.63,15.56-18.98,3.55-2.63,7.62-4.54,12.64-5.16,3.49-.43,6.73,.12,9.9,1.14,.37,.12,.64,.42,1.32,.89Zm-59.42,49.74c-.55,.05-1.21,.03-1.78,.19-3.52,.97-6.25,2.76-8.51,4.97-3.86,3.76-6.08,8.09-7.09,12.73-.68,3.13-.79,6.31,.67,9.4,1.26,2.68,4.3,4.44,7.83,4.54,4.33,.13,7.24-1.65,9.42-4.16,5.04-5.78,6.44-12.22,5.36-18.98-.22-1.35-1.31-2.68-2.32-3.87-.93-1.1-2.61-.75-4.09-.73-.33,0-1.03-.72-.94-1,.31-1.01,.89-1.97,1.44-3.09Z"/><path class="c" d="M181.48,114.47c.84,4.84,3.84,8.94,8.51,12.68-5.87,1.54-11.26,2.72-16.98,1.16-1.09-.3-1.73,.02-1.96,.75-.29,.9-.34,1.84-.59,2.75-.12,.45-.47,.86-.71,1.29-.41-.29-.99-.53-1.22-.89-1.7-2.63-3.4-5.26-4.95-7.94-.46-.8-1.03-.98-2.07-1.01-6.71-.19-13.45-.23-20.13-.71-5.5-.39-11.04-1.14-15.85-3.42-1.39-.65-2.6-1.72-3.42-2.8-.83-1.09-.14-1.59,1.57-1.46,.94,.07,1.89,.09,2.65,.12-1.64-2.01-3.29-3.87-4.69-5.84-.68-.96-.96-2.11-1.29-3.2-.29-.95,.14-1.45,1.59-1.13,10.69,2.39,21.6,3.79,32.77,3.88,1.4,.01,1.8,.55,2.17,1.49,.8,2.04,1.83,4.03,2.85,6.02,.2,.4,.74,.69,1.22,1.11-.23-2.05-.44-3.95-.67-5.84-.89-7.42,.7-14.58,3.65-21.63,2.57-6.14,6.31-11.82,11.34-16.99,3.38-3.47,7.19-6.66,12.34-8.69,1.44-.57,3.09-.86,4.67-1.2,.45-.1,1,.06,1.45,.1-1.32,1.34-2.52,2.56-3.73,3.78l.49,.43c1.07-.35,2.11-.88,3.22-1,2.22-.24,4.48-.29,6.72-.33,.35,0,.78,.38,1.03,.66,.06,.07-.37,.53-.67,.64-6.59,2.24-10.44,6.44-13.46,11.1-5.27,8.14-7.41,16.84-7.51,25.86,0,.54,.08,1.08,.16,2.08,4.57-1.61,8.93-2.88,12.96-4.6,9.95-4.24,17.69-10.2,22.98-17.88,3.71-5.39,5.93-11.08,4.85-17.22-.84-4.76-3.5-8.75-9.75-10.75-4.12-1.32-8.44-1.26-12.75-.76-16.23,1.89-28.48,8.73-38.83,17.93-.36,.32-.67,.66-1.22,1.22-3.55-3.41-2.5-6.84-1.28-10.61-9.22,1.62-16.58,5.52-24.28,8.86l-.38-.29c.16-.3,.26-.64,.49-.9,6.32-7.15,13.99-13.36,23.03-18.58,6.25-3.61,13.01-6.53,20.44-8.54,7.28-1.96,14.75-2.9,22.49-2.77,7.49,.13,14.72,1.06,21.45,3.64,9.07,3.48,14.94,8.93,17.54,16.4,2.29,6.57,1.55,13.03-.92,19.46-5.33,13.9-16.87,24.26-32.5,32.14-4.16,2.1-8.86,3.62-13.43,5.2-1,.35-2.79,.14-3.74-.35-1.9-.98-3.48-2.32-5.18-3.51l-.45,.1Z"/><path class="c" d="M214.22,145.61c-1.25,1.1-2.25,1.98-3.25,2.86l.27,.37c3.09,.01,6.36-1.5,9.63,.37-9.73,4.62-14.28,11.52-17.35,19.16l.56,.46c2.54-1.09,5.13-2.12,7.6-3.29,6.39-3.03,12.02-6.69,15.96-11.64,3.07-3.86,4.73-7.95,3.5-12.54-.96-3.57-5.28-6.59-10.09-6.99-6.59-.54-12.21,1.31-17.5,3.96-8.56,4.31-15.04,10.15-20.96,16.4-1.39,1.47-2.71,2.96-4.36,4.77-.5-1.01-.96-1.66-1.12-2.36-.18-.77-.1-1.58-.11-2.38,0-1.77-.33-2.04-2.58-1.46-3.43,.88-6.84,1.84-10.15,2.95-2.75,.92-5.33,2.11-8,3.17-.51,.2-1.05,.34-1.58,.51l-.28-.28c.39-.38,.74-.78,1.17-1.14,7.97-6.72,16.56-12.94,26.17-18.3,7.86-4.39,16.23-8.11,25.52-10.5,5.27-1.35,10.7-2.27,16.32-2.18,5.13,.08,10.01,.89,14.3,3.2,5.22,2.81,7.49,6.69,7.24,11.45-.34,6.32-4.56,11.29-9.88,15.85-.55,.47-1.05,.97-1.73,1.61,2.14,.33,3.98,.56,5.78,.91,5.55,1.09,9.39,3.8,11.94,7.56,3.7,5.44,3.74,11.19,2.11,17.04-1.59,5.7-5.06,10.66-10.24,14.94-5.89,4.86-13.05,8.2-21.48,9.89-3.63,.72-7.34,1.19-11.01,1.79-3.2,.53-5.68-.3-7.61-2.23-.58-.58-1.15-1.16-2.03-1.65,.43,6.22,2.88,11.98,6.53,17.62-8.19-2.25-15.88-4.96-22.35-10.11l-.43,2.7c-.52-.38-1.05-.6-1.27-.94-1.19-1.89-2.65-3.73-3.34-5.73-.64-1.85-2.19-2.41-4.22-2.82-8.58-1.75-16.71-4.41-24.76-7.22-.54-.19-1.01-.49-1.47-.97,4.19,.43,8.35,.83,13.03,.28-4.84-2.65-7.03-6-6.65-10.14,.17-1.8,.95-3.56,3.12-4.84,3.42,2.06,6.75,4.2,10.26,6.15,2.14,1.19,3.55,2.41,3.68,4.61,.19,3.01,1.84,5.73,4.47,8.45,.07-.56,.17-.81,.12-1.04-1.43-6.82-.77-13.57,.97-20.31,2.52-9.77,7.23-18.84,14.75-27.02,3.44-3.74,7.5-7.07,12.89-9.25,1.82-.74,3.86-1.19,5.83-1.7,.57-.15,1.27-.02,2.07-.02Zm19.75,36.97c-.32-1.3-.64-2.91-1.12-4.49-1.26-4.16-5.99-7.26-11.57-7.71-7.05-.56-13.16,1.42-19.01,4.04-.59,.26-1.12,.92-1.22,1.44-1.73,8.65-2.59,17.32-1.38,26.06,.14,.99,.74,1.37,1.95,1.5,5.37,.58,10.65,.23,15.59-1.43,10.86-3.65,15.64-10.44,16.77-19.41Z"/><path class="c" d="M263.3,131.58c-.67-.15-1.69-.43-2.73-.62-.9-.16-1.85-.15-2.73-.35-.46-.1-1.09-.44-1.15-.73-.06-.29,.46-.67,.78-.99,.54-.54,1.08-1.1,1.71-1.58,.3-.23,.8-.46,1.2-.45,1.59,.07,3.2,.13,4.74,.38,1.32,.22,2.2,.12,3.29-.62,1.71-1.16,3.64-2.2,5.67-3,1.96-.78,3.88-.1,4.95,1.4,1.43,2.01,.8,4.13-1.63,5.42-.35,.19-.72,.36-1.03,.51,1.62,1.59,3.2,2.9,4.39,4.38,1.8,2.26,.57,3.74-2.89,3.94-2.11,.12-3.7-.23-4.72-1.78-.48-.72-1.34-1.3-2.26-2.16-1.4,1.81-2.59,3.43-3.9,4.98-.42,.5-1.18,1.14-1.79,1.14-.55,0-1.11-.78-1.88-1.38-1.18,.27-1.5-.58-1.37-1.42,.33-2.24,.84-4.47,1.36-7.08Z"/><path class="c" d="M242.5,35.6l-.62-1.07c2.45,.11,4.62,.01,6.65,.37,1.45,.25,2.18,.02,3.19-.7,1.46-1.03,3.13-1.95,4.87-2.7,2.07-.89,4.61-.39,5.56,.89,1.54,2.05,1.21,4.31-.78,5.43-1.84,1.04-1.76,.98-.21,2.3,1.21,1.03,2.33,2.17,3.2,3.38,1.19,1.64,.57,2.65-1.73,3.2-2.35,.56-4.87,.56-6.15-1.53-.42-.69-1.26-1.24-2.26-2.19-1.1,1.4-2.03,2.6-2.98,3.8-.54,.68-1.01,1.4-1.68,1.98-.31,.27-1.29,.47-1.55,.32-1.01-.62-2.09-1.3-2.67-2.14-.44-.63-.33-1.56-.16-2.32,.28-1.23,.73-2.44,1.25-3.63,.67-1.53,.43-1.9-1.62-2.2-1.67-.24-3.33-.52-5-.78l-.25-.47,2.93-1.93Z"/></g></svg>