<?xml version="1.0" encoding="UTF-8"?><svg id="a" xmlns="http://www.w3.org/2000/svg" viewBox="0 0 582 121.22"><defs><style>.b{fill:#fff;}.c{fill:#1c1f20;}</style></defs><path class="b" d="M582,.5c-.67,0-1.33,.02-2,.02-192.67,0-385.33,0-578,0-.67,0-1.33-.01-2-.02C.08,.34,.16,.03,.25,.03,.92-.01,1.58,0,2.25,0,194.75,0,387.25,0,579.75,.03c.75,0,1.5,.31,2.25,.48Z"/><g><path class="c" d="M255.3,113.96c0-.85-.15-1.73,.03-2.53,.33-1.42-1.17-3.87,.83-4.12,2.78-.34,6.08-1.43,8.48,1.22,1.58,1.75,2.02,3.8,.4,5.87-1.17,1.49,.1,2.86,.13,4.28,.02,.77,1.98,1.5,.22,2.19-1.19,.46-2.64,.69-3.54-.73-.35-.54-.54-1.19-.76-1.81-.21-.61-.29-1.48-1.14-1.32-.76,.14-.88,.99-.75,1.63,.31,1.61-.03,2.51-1.91,2.49-1.5-.01-2.26-.34-2.05-2.1,.2-1.67,.04-3.38,.04-5.08h.02Zm4.91-3.69c-.79,.16-1.01,.81-1.06,1.44-.05,.73,.45,1.3,1.17,1.23,.68-.07,1.65-.28,1.45-1.25-.14-.69-.79-1.22-1.56-1.41Z"/><path class="c" d="M345.97,113.78c0-1.03,0-2.07,0-3.1-.02-3.77-.02-3.79,3.9-3.77,2.12,.01,4.31-.43,5.93,1.67,1.49,1.93,1.62,8.83,.01,10.66-1.21,1.37-7.6,2.46-9.3,1.6-.75-.38-.63-1.02-.61-1.69,.04-1.79,.01-3.57,.01-5.36h.05Zm4-.24c0,.79-.05,1.36,.01,1.92,.09,.78-.16,1.88,1.07,1.94,1.12,.05,1.67-.71,1.77-1.78,.05-.56,.08-1.13,.03-1.69-.13-1.49,.49-3.81-1.83-3.66-1.8,.12-.74,2.28-1.05,3.28Z"/><path class="c" d="M300.71,113.96c0-1.32,.2-2.68-.05-3.95-.53-2.71,.75-3.26,3.06-3.01,1.12,.12,2.26,0,3.38,.03,3.53,.1,4.94,2.17,3.51,5.36-.45,1-.06,1.51,.3,2.28,1.6,3.39-.23,6.28-3.94,6.36q-6.29,.13-6.26-6.23c0-.28,0-.56,0-.85Zm6.19-2.52c.38-1.1-.51-1.09-1.05-1.31-.85-.35-1.05,.13-1.23,.9-.2,.88,.05,1.6,.82,1.68,.68,.07,1.21-.65,1.46-1.26Zm-1.05,3.94c-.73,0-1.25,.28-1.21,1.12,.04,.76,.15,1.57,1.22,1.44,.84-.1,1.33-.64,1.35-1.49,.03-.91-.7-.94-1.36-1.07Z"/><path class="c" d="M331,113.86c0-.94,0-1.88,0-2.83q-.02-4.12,5.64-4.04c3.12,.04,5.28,1.93,4.79,4.8-.48,2.8-1.94,5.46,.18,8.21,.31,.41-.33,.8-.81,.88-1.02,.17-2.15,.46-2.92-.44-.52-.62-.79-1.47-1.12-2.24-.24-.57-.21-1.43-1.11-1.28-.8,.14-.99,.93-.85,1.56,.4,1.82-.16,2.56-2.1,2.57-2.49,0-1.68-1.67-1.71-2.94-.03-1.41,0-2.83,0-4.24h.01Zm6.47-1.98c-.03-.84-.59-1.36-1.27-1.6-.8-.28-1.12,.38-1.31,1.01-.23,.75,.14,1.31,.81,1.5,.77,.22,1.39-.17,1.78-.91Z"/><path class="c" d="M228.9,121.08c-.75,0-1.51-.03-2.25,0-1.45,.08-1.9-.44-1.82-2,.17-3.38,.06-6.77,.03-10.15,0-.64-.27-1.28,.51-1.72,1.37-.77,7.72,.05,8.82,1.18,1.97,2.03,2.29,8.62,.53,10.82-1.36,1.7-1.81,1.84-5.82,1.85Zm2.92-6.25c0-1.29,.05-1.85-.01-2.41-.13-1.13-.79-2.11-1.88-2.09-1.31,.03-.96,1.37-1.03,2.22-.09,1.11-.07,2.24,0,3.36,.05,.71,.09,1.69,1.04,1.7,.71,0,1.42-.59,1.67-1.31,.24-.68,.19-1.46,.2-1.48Z"/><path class="c" d="M291.04,111.34c1.68-1.99,1.82-5.8,5.75-3.67-.72,1.5-1.32,3.14-2.24,4.57-1.48,2.27-1.84,4.68-1.42,7.27,.22,1.35-.5,1.72-1.6,1.59-.98-.11-2.86,.53-2.53-1.18,.78-4.04-1.68-6.95-2.88-10.32-.26-.71-2.03-1.45-.58-2.17,1.19-.6,2.96-1.02,3.92,.83,.47,.91,.93,1.82,1.58,3.1Z"/><path class="c" d="M273.7,116.36c0-1.22,.03-2.45,0-3.67-.03-1.02-.46-2.01-1.56-1.99-1.08,.02-1.64-.16-1.54-1.31,.1-1.1,.48-2.2,1.7-2.29,2.25-.16,4.52-.18,6.76-.05,1.4,.08,1.61,1.49,1.82,2.53,.3,1.53-.98,.9-1.68,.98-1.14,.14-1.66,.8-1.64,1.9,.04,2.25,.08,4.51,.21,6.76,.03,.52,.57,1.08-.17,1.44-1.16,.56-2.4,.43-3.59,.15-.68-.16-.65-.75-.54-1.37,.18-1.01,.24-2.05,.36-3.07h-.11Z"/><path class="c" d="M323.03,114.81c0,1.31-.22,2.67,.05,3.92,.41,1.92-.47,2.32-2.06,2.3-1.59-.02-2.13-.41-1.92-2.34,.36-3.23,.08-6.53,0-9.81-.01-.61-.57-1.26,.41-1.59,1.1-.37,2.19-.41,3.29,.02,.96,.38,.36,1.01,.34,1.61-.07,1.96-.03,3.93-.03,5.89h-.1Z"/><path class="c" d="M247.32,114.15c0,1.6-.16,3.21,.05,4.78,.2,1.56-.4,2.05-1.8,2.06-1.5,.01-2.04-.43-1.93-2.17,.21-3.36,.13-6.76-.12-10.12-.13-1.73,.88-1.65,1.86-1.65,.94,0,2.16-.24,2.07,1.48-.1,1.87-.02,3.75-.02,5.63h-.1Z"/></g></svg>